# xmcd
#
# Track frame offsets:
#	150
#	17300
#	35247
#	51989
#	68146
#	86090
#	100910
#	111951
#	129986
#	143651
#	158175
#	178811
#
# Disc length: 2583 seconds
#
# Revision: 0
# Processed by: cddbd v1.5.2PL0 Copyright (c) Steve Scherf et al.
# Submitted via: SynApp - FreeCDDB Version: 2.5
#
DISCID=a20a150c
DTITLE=Not - Bad Trip Boys
DYEAR=2001
DGENRE=Eurodance
TTITLE0=Not - Piano
TTITLE1=Not - Topf Und Söhne
TTITLE2=Not - Tivoli
TTITLE3=Not - Litzmannstadt
TTITLE4=Not - Ciotka
TTITLE5=Not - Tv
TTITLE6=Not - Swinie W Kosmosie
TTITLE7=Not - Scandalli
TTITLE8=Not - Zly
TTITLE9=Not - Piosenka
TTITLE10=Not - Hey La La
TTITLE11=Not - Przyslosc
EXTD=
EXTT0=
EXTT1=
EXTT2=
EXTT3=
EXTT4=
EXTT5=
EXTT6=
EXTT7=
EXTT8=
EXTT9=
EXTT10=
EXTT11=
PLAYORDER=
